<?xml version="1.0" encoding="UTF-8" standalone="no"?>
<svg width="410px" height="50px" viewBox="0 0 410 50" version="1.1" xmlns="http://www.w3.org/2000/svg" xmlns:xlink="http://www.w3.org/1999/xlink" xmlns:sketch="http://www.bohemiancoding.com/sketch/ns">
    <!-- Generator: Sketch 3.4 (15575) - http://www.bohemiancoding.com/sketch -->
    <title>img_category_heading_illustration</title>
    <desc>Created with Sketch.</desc>
    <defs></defs>
    <g id="spec" stroke="none" stroke-width="1" fill="none" fill-rule="evenodd" sketch:type="MSPage">
        <g id="heading_item" sketch:type="MSLayerGroup" transform="translate(50.000000, 6.000000)">
            <path d="M79.24,19.24 L74.56,20.8 L74.56,10.52 L78.92,10.52 L78.92,9.36 L74.56,9.36 L74.56,0.8 L73.4,0.8 L73.4,9.36 L68.64,9.36 L68.64,10.52 L73.4,10.52 L73.4,21.2 C71.36,21.84 69.52,22.44 68.08,22.92 L68.48,24.08 L73.4,22.44 L73.4,35.12 C73.4,35.6 73.24,35.72 72.8,35.72 C72.44,35.72 71.2,35.76 69.64,35.72 C69.84,36.04 70.04,36.56 70.16,36.84 C72,36.84 73.04,36.84 73.68,36.64 C74.24,36.4 74.56,36.04 74.56,35.08 L74.56,22 C76.12,21.52 77.76,20.96 79.4,20.4 L79.24,19.24 Z M92.92,33.36 L92.92,11.52 L103.76,11.52 L103.76,10.36 L92.92,10.36 L92.92,3.96 C96.12,3.52 99.08,2.96 101.08,2.24 L100.28,1.24 C96.52,2.64 88.44,3.44 82.44,3.76 C82.64,4.08 82.76,4.52 82.8,4.8 C85.56,4.68 88.72,4.44 91.76,4.12 L91.76,10.36 L80.84,10.36 L80.84,11.52 L91.76,11.52 L91.76,33.36 L83.24,33.36 L83.24,26.04 L89.52,26.04 L89.52,24.88 L83.24,24.88 L83.24,18.68 C85.24,18.2 87.48,17.52 89.04,16.68 L88.12,15.76 C86.68,16.52 84.2,17.32 82.08,17.84 L82.08,36.84 L83.24,36.84 L83.24,34.52 L101.12,34.52 L101.12,36.88 L102.28,36.88 L102.28,17.12 L94.84,17.12 L94.84,18.28 L101.12,18.28 L101.12,24.84 L95,24.84 L95,26 L101.12,26 L101.12,33.36 L92.92,33.36 Z M141.36,3.64 L110.92,3.64 L110.92,4.76 L141.36,4.76 L141.36,3.64 Z M117.36,19.92 L125.36,19.92 L125.36,27.08 L117.36,27.08 L117.36,19.92 Z M117.36,11.68 L125.36,11.68 L125.36,18.76 L117.36,18.76 L117.36,11.68 Z M134.52,18.76 L126.52,18.76 L126.52,11.68 L134.52,11.68 L134.52,18.76 Z M134.52,27.08 L126.52,27.08 L126.52,19.92 L134.52,19.92 L134.52,27.08 Z M135.68,28.24 L135.68,10.52 L116.2,10.52 L116.2,28.24 L135.68,28.24 Z M140.76,12.8 L140.76,33.56 L111.48,33.56 L111.48,13.12 L110.28,13.12 L110.28,34.72 L140.76,34.72 L140.76,36.64 L141.92,36.64 L141.92,12.8 L140.76,12.8 Z M146.44,41.04 L147.84,41.04 L161.8,2.72 L160.44,2.72 L146.44,41.04 Z M195.44,6.52 L178.76,6.52 L178.76,3.4 L195.44,3.4 L195.44,6.52 Z M195.44,10.92 L178.76,10.92 L178.76,7.68 L195.44,7.68 L195.44,10.92 Z M196.6,2.24 L177.6,2.24 L177.6,12.08 L196.6,12.08 L196.6,2.24 Z M197.4,20.56 L191.12,20.56 L191.12,15.68 L197.4,15.68 L197.4,20.56 Z M189.96,20.56 L183.8,20.56 L183.8,15.68 L189.96,15.68 L189.96,20.56 Z M182.64,20.56 L176.68,20.56 L176.68,15.68 L182.64,15.68 L182.64,20.56 Z M198.56,14.52 L175.52,14.52 L175.52,21.72 L198.56,21.72 L198.56,14.52 Z M173.92,6 C172.36,4.68 169.32,2.84 166.76,1.64 L166.08,2.48 C168.6,3.76 171.64,5.68 173.16,7.04 L173.92,6 Z M171.92,17.32 C170.4,16 167.4,14.08 164.92,12.88 L164.2,13.68 C166.68,15 169.64,16.96 171.16,18.36 L171.92,17.32 Z M171.96,22.84 C169.88,27 166.96,32.12 164.96,35.04 L166.04,35.92 C168.16,32.52 170.88,27.56 172.84,23.6 L171.96,22.84 Z M194.88,25.48 C193.04,28 190.24,30 186.92,31.6 C183.72,29.96 181.04,27.88 179.16,25.48 L194.88,25.48 Z M196.04,24.24 L195.76,24.32 L174.32,24.32 L174.32,25.48 L177.8,25.48 C179.64,28.12 182.44,30.36 185.68,32.16 C181.52,33.96 176.76,35.12 172.36,35.72 C172.56,36 172.88,36.48 172.96,36.84 C177.64,36.16 182.64,34.84 186.92,32.8 C190.6,34.64 194.8,35.96 199.08,36.68 C199.24,36.32 199.56,35.92 199.8,35.64 C195.72,35 191.72,33.84 188.2,32.24 C191.84,30.36 194.92,27.88 196.8,24.8 L196.04,24.24 Z M237.2,3.64 L206.76,3.64 L206.76,4.76 L237.2,4.76 L237.2,3.64 Z M213.2,19.92 L221.2,19.92 L221.2,27.08 L213.2,27.08 L213.2,19.92 Z M213.2,11.68 L221.2,11.68 L221.2,18.76 L213.2,18.76 L213.2,11.68 Z M230.36,18.76 L222.36,18.76 L222.36,11.68 L230.36,11.68 L230.36,18.76 Z M230.36,27.08 L222.36,27.08 L222.36,19.92 L230.36,19.92 L230.36,27.08 Z M231.52,28.24 L231.52,10.52 L212.04,10.52 L212.04,28.24 L231.52,28.24 Z M236.6,12.8 L236.6,33.56 L207.32,33.56 L207.32,13.12 L206.12,13.12 L206.12,34.72 L236.6,34.72 L236.6,36.64 L237.76,36.64 L237.76,12.8 L236.6,12.8 Z" id="插画/漫画" fill="#444444" sketch:type="MSShapeGroup"></path>
            <path d="M50,21 L0,21 L0,22 L50,22 L50,21 Z M259,21 L310,21 L310,22 L259,22 L259,21 Z" id="line" fill="#BBBBBB" sketch:type="MSShapeGroup"></path>
        </g>
    </g>
</svg>